[Header]
FileType HTR
DataType HTRS
FileVersion 1
NumSegments 64
NumFrames 3
DataFrameRate 24
EulerRotationOrder ZYX
CalibrationUnits mm
RotationUnits Degrees
GlobalAxisofGravity Y
BoneLengthAxis Y
ScaleFactor 1.0
[SegmentNames&Hierarchy]
Hips	GLOBAL
Spine	Hips
Spine1	Spine
Spine2	Spine1
Neck	Spine2
Head	Neck
LeftEye	Head
RightEye	Head
LeftShoulder	Spine2
LeftArm	LeftShoulder
LeftForeArm	LeftArm
LeftHand	LeftForeArm
LeftHandThumb1	LeftHand
LeftHandThumb2	LeftHandThumb1
LeftHandThumb3	LeftHandThumb2
LeftHandThumb4	LeftHandThumb3
LeftHandIndex1	LeftHand
LeftHandIndex2	LeftHandIndex1
LeftHandIndex3	LeftHandIndex2
LeftHandIndex4	LeftHandIndex3
LeftHandMiddle1	LeftHand
LeftHandMiddle2	LeftHandMiddle1
LeftHandMiddle3	LeftHandMiddle2
LeftHandMiddle4	LeftHandMiddle3
LeftHandRing1	LeftHand
LeftHandRing2	LeftHandRing1
LeftHandRing3	LeftHandRing2
LeftHandRing4	LeftHandRing3
LeftHandPinky1	LeftHand
LeftHandPinky2	LeftHandPinky1
LeftHandPinky3	LeftHandPinky2
LeftHandPinky4	LeftHandPinky3
RightShoulder	Spine2
RightArm	RightShoulder
RightForeArm	RightArm
RightHand	RightForeArm
RightHandPinky1	RightHand
RightHandPinky2	RightHandPinky1
RightHandPinky3	RightHandPinky2
RightHandPinky4	RightHandPinky3
RightHandRing1	RightHand
RightHandRing2	RightHandRing1
RightHandRing3	RightHandRing2
RightHandRing4	RightHandRing3
RightHandMiddle1	RightHand
RightHandMiddle2	RightHandMiddle1
RightHandMiddle3	RightHandMiddle2
RightHandMiddle4	RightHandMiddle3
RightHandIndex1	RightHand
RightHandIndex2	RightHandIndex1
RightHandIndex3	RightHandIndex2
RightHandIndex4	RightHandIndex3
RightHandThumb1	RightHand
RightHandThumb2	RightHandThumb1
RightHandThumb3	RightHandThumb2
RightHandThumb4	RightHandThumb3
LeftUpLeg	Hips
LeftLeg	LeftUpLeg
LeftFoot	LeftLeg
LeftToeBase	LeftFoot
RightUpLeg	Hips
RightLeg	RightUpLeg
RightFoot	RightLeg
RightToeBase	RightFoot
[BasePosition]
Hips	0	0	0	0	0	0	1
Spine	0	0	0	0	0	0	1
Spine1	0	0	0	0	0	0	1
Spine2	0	0	0	0	0	0	1
Neck	0	0	0	0	0	0	1
Head	0	0	0	0	0	0	1
LeftEye	0	0	0	0	0	0	1
RightEye	0	0	0	0	0	0	1
LeftShoulder	0	0	0	0	0	0	1
LeftArm	0	0	0	0	0	0	1
LeftForeArm	0	0	0	0	0	0	1
LeftHand	0	0	0	0	0	0	1
LeftHandThumb1	0	0	0	0	0	0	1
LeftHandThumb2	0	0	0	0	0	0	1
LeftHandThumb3	0	0	0	0	0	0	1
LeftHandThumb4	0	0	0	0	0	0	1
LeftHandIndex1	0	0	0	0	0	0	1
LeftHandIndex2	0	0	0	0	0	0	1
LeftHandIndex3	0	0	0	0	0	0	1
LeftHandIndex4	0	0	0	0	0	0	1
LeftHandMiddle1	0	0	0	0	0	0	1
LeftHandMiddle2	0	0	0	0	0	0	1
LeftHandMiddle3	0	0	0	0	0	0	1
LeftHandMiddle4	0	0	0	0	0	0	1
LeftHandRing1	0	0	0	0	0	0	1
LeftHandRing2	0	0	0	0	0	0	1
LeftHandRing3	0	0	0	0	0	0	1
LeftHandRing4	0	0	0	0	0	0	1
LeftHandPinky1	0	0	0	0	0	0	1
LeftHandPinky2	0	0	0	0	0	0	1
LeftHandPinky3	0	0	0	0	0	0	1
LeftHandPinky4	0	0	0	0	0	0	1
RightShoulder	0	0	0	0	0	0	1
RightArm	0	0	0	0	0	0	1
RightForeArm	0	0	0	0	0	0	1
RightHand	0	0	0	0	0	0	1
RightHandPinky1	0	0	0	0	0	0	1
RightHandPinky2	0	0	0	0	0	0	1
RightHandPinky3	0	0	0	0	0	0	1
RightHandPinky4	0	0	0	0	0	0	1
RightHandRing1	0	0	0	0	0	0	1
RightHandRing2	0	0	0	0	0	0	1
RightHandRing3	0	0	0	0	0	0	1
RightHandRing4	0	0	0	0	0	0	1
RightHandMiddle1	0	0	0	0	0	0	1
RightHandMiddle2	0	0	0	0	0	0	1
RightHandMiddle3	0	0	0	0	0	0	1
RightHandMiddle4	0	0	0	0	0	0	1
RightHandIndex1	0	0	0	0	0	0	1
RightHandIndex2	0	0	0	0	0	0	1
RightHandIndex3	0	0	0	0	0	0	1
RightHandIndex4	0	0	0	0	0	0	1
RightHandThumb1	0	0	0	0	0	0	1
RightHandThumb2	0	0	0	0	0	0	1
RightHandThumb3	0	0	0	0	0	0	1
RightHandThumb4	0	0	0	0	0	0	1
LeftUpLeg	0	0	0	0	0	0	1
LeftLeg	0	0	0	0	0	0	1
LeftFoot	0	0	0	0	0	0	1
LeftToeBase	0	0	0	0	0	0	1
RightUpLeg	0	0	0	0	0	0	1
RightLeg	0	0	0	0	0	0	1
RightFoot	0	0	0	0	0	0	1
RightToeBase	0	0	0	0	0	0	1
[Hips]
4	-476.0409851	1000.125793	20.9033947	-3.2943964	-73.49762726	12.72299385	1.0
5	-639.0856323	1008.410339	26.29977226	-2.265350103	-72.47603607	12.97154999	1.0
6	-802.3743896	1002.854553	31.0930481	2.197559118	-73.77069855	7.663695335	1.0
[Spine]
4	0	101.8159943	1.315000057	5.954708099	12.61834526	-4.097079754	1.0
5	0	101.8159943	1.315000057	4.892204285	15.3874321	-4.626284599	1.0
6	0	101.8159943	1.315000057	5.193953991	15.39534473	-3.091288328	1.0
[Spine1]
4	0	100.8349991	-10.00800037	2.312835455	4.885786057	-1.446032524	1.0
5	0	100.8349991	-10.00800037	1.931661725	5.90207386	-1.656756878	1.0
6	0	100.8349991	-10.00800037	1.921249032	5.925191879	-1.337599158	1.0
[Spine2]
4	0	91	-13.73399925	2.300895452	4.884535789	-1.463258624	1.0
5	0	91	-13.73399925	1.912719369	5.901875973	-1.683532834	1.0
6	0	91	-13.73399925	1.913463235	5.91886282	-1.376341343	1.0
[Neck]
4	0	166.7169952	-25.16200066	-0.1690231115	6.914666653	0.5842331052	1.0
5	0	166.7169952	-25.16200066	-0.2000746578	5.767711639	0.483841151	1.0
6	0	166.7169952	-25.16200066	-0.3680561483	6.044319153	0.06119617447	1.0
[Head]
4	0	96.17900085	16.84999847	-19.72225189	34.25097275	-16.54158592	1.0
5	0	96.17900085	16.84999847	-18.4314518	30.18549347	-15.16090012	1.0
6	0	96.17900085	16.84999847	-18.5913887	31.09961891	-16.23996353	1.0
[LeftEye]
4	30.6760006	64.09500122	92.83599854	0	0	0	1.0
5	30.6760006	64.09500122	92.83599854	0	0	0	1.0
6	30.6760006	64.09500122	92.83599854	0	0	0	1.0
[RightEye]
4	-30.6760006	64.09500122	92.83499908	0	0	0	1.0
5	-30.6760006	64.09500122	92.83499908	0	0	0	1.0
6	-30.6760006	64.09500122	92.83499908	0	0	0	1.0
[LeftShoulder]
4	45.70400238	109.4599991	-26.28000069	2.50115037	7.357841492	-13.15337563	1.0
5	45.70400238	109.4599991	-26.28000069	2.703187227	6.308767319	-13.4310236	1.0
6	45.70400238	109.4599991	-26.28000069	2.656233072	6.891927719	-14.13719177	1.0
[LeftArm]
4	105.923996	-5.24600029	-22.32099915	32.23871613	28.19573402	-26.27946281	1.0
5	105.923996	-5.24600029	-22.32099915	29.60750961	35.25005722	-20.07647705	1.0
6	105.923996	-5.24600029	-22.32099915	25.13255882	39.15397644	-19.60066986	1.0
[LeftForeArm]
4	278.414978	-0.0009999999311	0	3.690721132e-05	-58.19524765	-0.0002462882549	1.0
5	278.414978	-0.0009999999311	0	1.687170698e-05	-57.93344116	-0.000217423265	1.0
6	278.414978	-0.0009999999311	0	4.561064634e-05	-63.3558197	-0.0002570785	1.0
[LeftHand]
4	283.2879944	0	0	41.53596497	1.560559988	-5.925556183	1.0
5	283.2879944	0	0	41.10500336	10.94845009	-11.25764751	1.0
6	283.2879944	0	0	41.09603119	18.52859879	-15.6112833	1.0
[LeftHandThumb1]
4	24.6609993	-15.75	26.8239994	-9.76433754	24.02732849	14.26491833	1.0
5	24.6609993	-15.75	26.8239994	-12.48538589	27.37847137	17.20486259	1.0
6	24.6609993	-15.75	26.8239994	-10.18314171	21.90032005	14.64081478	1.0
[LeftHandThumb2]
4	32.29800034	-18.64699936	18.64699936	6.733150005	9.379932404	-4.091490269	1.0
5	32.29800034	-18.64699936	18.64699936	6.696129799	10.78617191	-7.43248558	1.0
6	32.29800034	-18.64699936	18.64699936	6.969017506	12.23064518	-4.559172153	1.0
[LeftHandThumb3]
4	26.52600098	-15.31499958	15.31499958	1.70020473	7.615533352	3.628571033	1.0
5	26.52600098	-15.31499958	15.31499958	2.396127701	10.3553381	3.953989029	1.0
6	26.52600098	-15.31499958	15.31499958	2.904945135	12.21207428	4.054790974	1.0
[LeftHandThumb4]
4	19.54599953	-11.28499985	11.28499985	0	0	0	1.0
5	19.54599953	-11.28499985	11.28499985	0	0	0	1.0
6	19.54599953	-11.28499985	11.28499985	0	0	0	1.0
[LeftHandIndex1]
4	91.09299469	-5.170999527	22.60099792	-0.6691111326	0.9806776643	-9.391074181	1.0
5	91.09299469	-5.170999527	22.60099792	-1.116828084	2.157357216	-13.92388916	1.0
6	91.09299469	-5.170999527	22.60099792	-1.311088085	2.875130653	-15.73518658	1.0
[LeftHandIndex2]
4	36.76399994	0	0	-0.2973262668	2.04258132	-12.70445442	1.0
5	36.76399994	0	0	-0.3419294357	2.15806222	-13.92142868	1.0
6	36.76399994	0	0	-0.3752278388	2.239843845	-14.78954697	1.0
[LeftHandIndex3]
4	28.83100128	0	0	-0.0820685029	0.6370239854	-8.4725914	1.0
5	28.83100128	0	0	-0.1011501998	0.7563813329	-9.674419403	1.0
6	28.83100128	0	0	-0.1162922904	0.8414025903	-10.53318501	1.0
[LeftHandIndex4]
4	23.92700005	0	0	0	0	0	1.0
5	23.92700005	0	0	0	0	0	1.0
6	23.92700005	0	0	0	0	0	1.0
[LeftHandMiddle1]
4	95.33399963	0	0	-2.412044048	4.718148232	-23.45238686	1.0
5	95.33399963	0	0	-2.900177002	5.168505192	-27.15539169	1.0
6	95.33399963	0	0	-3.035838127	5.851849079	-28.10999107	1.0
[LeftHandMiddle2]
4	36.98199844	0	0	-1.031131029	3.345746279	-27.28228951	1.0
5	36.98199844	0	0	-1.184942484	3.543974876	-29.76240921	1.0
6	36.98199844	0	0	-1.282870173	3.661463022	-31.27459526	1.0
[LeftHandMiddle3]
4	29.50900078	0	0	-0.202955544	1.694701076	-14.4346199	1.0
5	29.50900078	0	0	-0.2738284469	1.929693103	-16.90229607	1.0
6	29.50900078	0	0	-0.3219834864	2.071328163	-18.40631485	1.0
[LeftHandMiddle4]
4	28.3390007	0	0	0	0	0	1.0
5	28.3390007	0	0	0	0	0	1.0
6	28.3390007	0	0	0	0	0	1.0
[LeftHandRing1]
4	91.04499817	-0.4390000105	-18.65100098	-3.4942801	10.48799992	-30.92695427	1.0
5	91.04499817	-0.4390000105	-18.65100098	-4.132147312	10.62089729	-35.60050964	1.0
6	91.04499817	-0.4390000105	-18.65100098	-4.612220287	10.88410759	-38.9943428	1.0
[LeftHandRing2]
4	31.54000092	0	0	-0.6363447309	3.18503809	-29.72024918	1.0
5	31.54000092	0	0	-0.8723489642	3.594707012	-34.49822617	1.0
6	31.54000092	0	0	-1.022990584	3.82040453	-37.24105453	1.0
[LeftHandRing3]
4	29.37700081	0	0	-0.1606433988	2.158093452	-21.9883194	1.0
5	29.37700081	0	0	-0.3126454055	2.606131792	-26.74568176	1.0
6	29.37700081	0	0	-0.4163843393	2.856693268	-29.47332001	1.0
[LeftHandRing4]
4	26.47500038	0	0	0	0	0	1.0
5	26.47500038	0	0	0	0	0	1.0
6	26.47500038	0	0	0	0	0	1.0
[LeftHandPinky1]
4	80.77799988	-4.887000084	-38.06099701	-4.316473484	16.24642563	-32.31845093	1.0
5	80.77799988	-4.887000084	-38.06099701	-5.42808342	16.74585342	-39.0658226	1.0
6	80.77799988	-4.887000084	-38.06099701	-6.454535961	16.73204422	-45.27072144	1.0
[LeftHandPinky2]
4	36	0	0	-1.804592252	3.690054417	-43.7574501	1.0
5	36	0	0	-2.388379574	4.167370319	-51.32495117	1.0
6	36	0	0	-2.672239542	4.357156754	-54.75099182	1.0
[LeftHandPinky3]
4	21.14200211	0	0	-0.3475702703	2.371077776	-15.51004028	1.0
5	21.14200211	0	0	-0.6515615582	3.049327135	-22.93634796	1.0
6	21.14200211	0	0	-0.8165373206	3.34042573	-26.27985191	1.0
[LeftHandPinky4]
4	19.75699997	0	0	0	0	0	1.0
5	19.75699997	0	0	0	0	0	1.0
6	19.75699997	0	0	0	0	0	1.0
[RightShoulder]
4	-45.70000076	109.4620056	-26.28000069	9.933817863	26.65168762	22.89175415	1.0
5	-45.70000076	109.4620056	-26.28000069	9.457408905	24.97478104	22.52360535	1.0
6	-45.70000076	109.4620056	-26.28000069	9.285344124	24.51700592	22.31348991	1.0
[RightArm]
4	-105.9280014	-5.248000145	-22.32099915	12.57599354	3.12888813	27.0216198	1.0
5	-105.9280014	-5.248000145	-22.32099915	10.71387959	1.642438531	27.58170128	1.0
6	-105.9280014	-5.248000145	-22.32099915	11.3529253	-0.7620682716	30.4457531	1.0
[RightForeArm]
4	-278.414978	0	0	4.305202674e-05	77.04505157	2.173476241e-05	1.0
5	-278.414978	0	0	0.0001220703125	93.72283173	9.155273438e-05	1.0
6	-278.414978	0	0	1.525878361e-05	100.0232849	3.051757813e-05	1.0
[RightHand]
4	-283.2879944	0	0.0009999999311	27.34787369	-1.238271475	1.242048144	1.0
5	-283.2879944	0	0.0009999999311	26.92828369	4.409368515	-7.550228119	1.0
6	-283.2879944	0	0.0009999999311	23.35618591	11.22365379	-22.16694641	1.0
[RightHandPinky1]
4	-80.76699829	-4.885000229	-38.06000137	-6.747533321	1.66111207	54.57553482	1.0
5	-80.76699829	-4.885000229	-38.06000137	-6.862744331	2.130309105	46.3496933	1.0
6	-80.76699829	-4.885000229	-38.06000137	-6.590092659	-3.091442823	36.15029526	1.0
[RightHandPinky2]
4	-36	0	0.0009999999311	-2.756242037	-4.40818882	55.75966263	1.0
5	-36	0	0.0009999999311	-2.209216356	-4.033814907	49.10526276	1.0
6	-36	0	0.0009999999311	-1.270720363	-3.117285967	35.92472458	1.0
[RightHandPinky3]
4	-21.14200211	0	0	-1.094773173	-0.5093087554	28.6400528	1.0
5	-21.14200211	0	0	-0.7645525932	0.05654383451	22.10426521	1.0
6	-21.14200211	0	0	-0.3115932643	1.263972759	9.227034569	1.0
[RightHandPinky4]
4	-19.75699997	0	0	0	0	0	1.0
5	-19.75699997	0	0	0	0	0	1.0
6	-19.75699997	0	0	0	0	0	1.0
[RightHandRing1]
4	-91.03599548	-0.4390000105	-18.65100098	-4.83231163	-4.588636398	42.92913437	1.0
5	-91.03599548	-0.4390000105	-18.65100098	-3.972659588	-3.503535032	37.13544464	1.0
6	-91.03599548	-0.4390000105	-18.65100098	-3.212026358	-5.112138271	30.83907318	1.0
[RightHandRing2]
4	-31.54000092	0	0	-0.9796804786	-3.757657528	36.47524643	1.0
5	-31.54000092	0	0	-0.8161119223	-3.503788233	33.42259979	1.0
6	-31.54000092	0	0	-0.4831816852	-2.867618084	26.16435051	1.0
[RightHandRing3]
4	-29.37700081	0	0	-0.4062549174	-0.7959024906	27.12155533	1.0
5	-29.37700081	0	0	-0.3037196994	-0.5137665868	24.10583878	1.0
6	-29.37700081	0	0	-0.1202366874	0.1772110909	16.9214592	1.0
[RightHandRing4]
4	-26.47500038	0	0	0	0	0	1.0
5	-26.47500038	0	0	0	0	0	1.0
6	-26.47500038	0	0	0	0	0	1.0
[RightHandMiddle1]
4	-95.32500458	0	0	-4.869555473	6.694104195	42.78328705	1.0
5	-95.32500458	0	0	-4.081401348	7.915132999	37.45354843	1.0
6	-95.32500458	0	0	-3.029933691	4.436090469	29.29350281	1.0
[RightHandMiddle2]
4	-36.98199844	0	0	-1.007045388	-3.31278491	26.88229179	1.0
5	-36.98199844	0	0	-0.9068863988	-3.171363592	25.16950607	1.0
6	-36.98199844	0	0	-0.7160986662	-2.874181271	21.6796627	1.0
[RightHandMiddle3]
4	-29.50900078	0	0	-0.3060262203	-1.841209531	17.62104797	1.0
5	-29.50900078	0	0	-0.2613251507	-1.703713179	16.16733551	1.0
6	-29.50900078	0	0	-0.1730805039	-1.388462782	12.87621689	1.0
[RightHandMiddle4]
4	-28.3390007	0	0.0009999999311	0	0	0	1.0
5	-28.3390007	0	0.0009999999311	0	0	0	1.0
6	-28.3390007	0	0.0009999999311	0	0	0	1.0
[RightHandIndex1]
4	-91.08300018	-5.167999744	22.60099792	-2.173433781	12.59775925	22.92433739	1.0
5	-91.08300018	-5.167999744	22.60099792	-2.061227798	12.85740471	21.69215393	1.0
6	-91.08300018	-5.167999744	22.60099792	-1.84215641	7.997594833	19.92225075	1.0
[RightHandIndex2]
4	-36.76399994	0	0	-0.3611699343	-2.205644608	14.42794991	1.0
5	-36.76399994	0	0	-0.3232264817	-2.110421658	13.42039013	1.0
6	-36.76399994	0	0	-0.2450391054	-1.896877885	11.18464184	1.0
[RightHandIndex3]
4	-28.83100128	0	0	-0.2488789409	-0.198897168	14.26931667	1.0
5	-28.83100128	0	0	-0.2317018658	-0.1295680404	13.55918217	1.0
6	-28.83100128	0	0	-0.1838535368	0.08713883162	11.35240841	1.0
[RightHandIndex4]
4	-23.92700005	0	0	0	0	0	1.0
5	-23.92700005	0	0	0	0	0	1.0
6	-23.92700005	0	0	0	0	0	1.0
[RightHandThumb1]
4	-24.64799881	-15.72700024	26.82600021	-1.761389136	8.205218315	8.143768311	1.0
5	-24.64799881	-15.72700024	26.82600021	-0.8064100742	6.17749548	7.089693546	1.0
6	-24.64799881	-15.72700024	26.82600021	1.145300865	2.281769276	4.942477703	1.0
[RightHandThumb2]
4	-32.29800034	-18.64699936	18.64699936	2.847281218	-26.15367126	-13.53083992	1.0
5	-32.29800034	-18.64699936	18.64699936	2.80026269	-23.94162369	-12.87793732	1.0
6	-32.29800034	-18.64699936	18.64699936	2.8323524	-19.77897835	-11.72261429	1.0
[RightHandThumb3]
4	-26.52600098	-15.31399918	15.31399918	1.822577715	-13.55590916	-3.528657675	1.0
5	-26.52600098	-15.31399918	15.31399918	1.416825891	-11.93464088	-3.487453222	1.0
6	-26.52600098	-15.31399918	15.31399918	0.7963010669	-7.05066967	-1.004693866	1.0
[RightHandThumb4]
4	-19.54599953	-11.28499985	11.28499985	0	0	0	1.0
5	-19.54599953	-11.28499985	11.28499985	0	0	0	1.0
6	-19.54599953	-11.28499985	11.28499985	0	0	0	1.0
[LeftUpLeg]
4	82.07800293	-67.51699829	-15.99599934	-55.16649628	-5.38911438	-2.781269073	1.0
5	82.07800293	-67.51699829	-15.99599934	-51.02038956	-7.565888405	-5.905984402	1.0
6	82.07800293	-67.51699829	-15.99599934	-43.09891891	-5.564733028	-6.294187069	1.0
[LeftLeg]
4	0	-443.7049866	2.845999956	71.58599854	-1.449499607	0.08668453246	1.0
5	0	-443.7049866	2.845999956	46.84979248	-2.293297052	1.654167652	1.0
6	0	-443.7049866	2.845999956	30.89239502	-1.76382041	3.242278814	1.0
[LeftFoot]
4	0	-444.2789917	-29.8219986	-10.29948711	12.02405262	-10.63582802	1.0
5	0	-444.2789917	-29.8219986	-12.07130527	10.32666588	-14.81719589	1.0
6	0	-444.2789917	-29.8219986	-10.86212063	3.910367727	-13.76314163	1.0
[LeftToeBase]
4	0	-87.28699493	107.1060028	-2.233801603	1.957829591e-05	-4.122019163e-06	1.0
5	0	-87.28699493	107.1060028	-3.017249107	1.70362182e-06	2.841603191e-06	1.0
6	0	-87.28699493	107.1060028	-3.973811626	-3.135592851e-05	-1.307732987e-06	1.0
[RightUpLeg]
4	-82.07800293	-67.51699829	-15.99599934	15.69894218	-10.67442131	3.608196497	1.0
5	-82.07800293	-67.51699829	-15.99599934	17.92619324	-11.67314911	4.811755657	1.0
6	-82.07800293	-67.51699829	-15.99599934	15.38217068	-11.36438274	8.201371193	1.0
[RightLeg]
4	0	-443.7049866	2.861999989	5.951678276	-0.7980338335	-1.524036169	1.0
5	0	-443.7049866	2.861999989	9.696176529	-3.252037764	-4.289022446	1.0
6	0	-443.7049866	2.861999989	27.79787254	-4.867207527	-10.05675697	1.0
[RightFoot]
4	0	-444.2770081	-29.83799934	5.671862602	-2.569395542	2.667840958	1.0
5	0	-444.2770081	-29.83799934	27.48676491	-5.175226688	9.024468422	1.0
6	0	-444.2770081	-29.83799934	25.19090271	-10.54983139	13.25080585	1.0
[RightToeBase]
4	0	-87.28699493	107.1060028	-16.03310013	-0.5518146753	-2.091444731	1.0
5	0	-87.28699493	107.1060028	-19.2327404	-5.434352715e-06	1.292017078e-05	1.0
6	0	-87.28699493	107.1060028	-11.86407661	-1.513109692e-05	6.482856406e-06	1.0
[EndOfFile]
